<svg xmlns="http://www.w3.org/2000/svg" width="64" height="64" viewBox="0 0 64 64">
  <defs>
    <linearGradient id="xstyled-a" x1="50%" x2="27.679%" y1="61.026%" y2="89.378%">
      <stop offset="0%" stop-color="#E87FD0"/>
      <stop offset="100%" stop-color="#DA3180"/>
    </linearGradient>
    <radialGradient id="xstyled-b" cx="73.75%" cy="72.36%" r="75.282%" fx="73.75%" fy="72.36%" gradientTransform="scale(-1 -.8433) rotate(-11.578 -7.8 7.207)">
      <stop offset="0%" stop-color="#E64AB6"/>
      <stop offset="100%" stop-color="#9A377C"/>
    </radialGradient>
    <radialGradient id="xstyled-c" cx="80.978%" cy="50%" r="233.769%" fx="80.978%" fy="50%" gradientTransform="matrix(-.3404 0 0 -1 1.085 1)">
      <stop offset="0%" stop-color="#FFF"/>
      <stop offset="100%" stop-color="#FFB0FA"/>
    </radialGradient>
    <linearGradient id="xstyled-d" x1="64.215%" x2="57.694%" y1="35.122%" y2="65.473%">
      <stop offset="0%" stop-color="#A22D7B"/>
      <stop offset="100%" stop-color="#D95AB2"/>
    </linearGradient>
    <linearGradient id="xstyled-e" x1="90.062%" x2="8.249%" y1="34.709%" y2="53.474%">
      <stop offset="0%" stop-color="#FFF1FA"/>
      <stop offset="100%" stop-color="#FF7DD7"/>
    </linearGradient>
  </defs>
  <g fill="none" transform="translate(0 3)">
    <path fill="url(#xstyled-a)" d="M32.0584333,0 C39.8649465,0 40.859662,15.2504548 47.6741535,27.1447976 C54.4909966,39.043245 67.1256077,47.5867307 63.2898738,54.249455 C59.2490344,61.2684503 46.3949645,54.5101962 32.0584333,54.249455 C19.1819874,54.0152687 4.72734709,61.0244257 0.82699284,54.249455 C-3.35942688,46.9775846 9.35377942,39.0435119 16.4427131,27.1447976 C23.3117489,15.6151798 24.3735804,0 32.0584333,0 Z"/>
    <path fill="#C43197" d="M32.0725874,0 C39.8826339,0 40.8777996,15.2270186 47.6953755,27.1030829 C50.1991871,31.4646665 53.4875052,35.3747444 56.456924,38.9061538 C60.8095384,48.0099292 40.3171068,49.385131 36.3854282,47.317914 C32.4537496,45.2506972 30.0167862,42.0304269 30.0167862,39.5804852 C30.0167862,37.1305434 32.0141276,33.645759 36.3854282,33.645759 C42.0045482,33.645759 35.3593385,31.464867 16.4497992,27.1030829 C23.3219441,15.5911832 24.3842562,0 32.0725874,0 Z"/>
    <path fill="url(#xstyled-b)" d="M32.0725874,0 C39.8826339,0 40.8777996,15.2270186 47.6953755,27.1030829 C50.1991871,31.4646665 53.4875052,35.3747444 56.456924,38.9061538 C60.8095384,48.0099292 40.3171068,49.385131 36.3854282,47.317914 C32.4537496,45.2506972 30.1422524,42.3366775 30.1422524,39.8867358 C30.1422524,37.436794 32.0141276,33.902918 36.3854282,33.902918 C42.0045482,33.902918 35.3593385,31.6363063 16.4497992,27.1030829 C23.3219441,15.5911832 24.3842562,0 32.0725874,0 Z"/>
    <path fill="#DD4191" d="M27.4412721,43.6763583 C34.0149631,45.2605449 40.8036154,49.5009816 47.807229,56.3976686 C43.0605941,55.5188174 37.7410417,54.0417953 32.0833588,53.9391552 C27.4711666,53.8554821 22.389889,54.7600287 17.9296414,55.5664958 C11.1171094,55.3409336 7.71084335,53.0666055 7.71084335,48.7435111 C7.71084335,42.2588697 17.5807355,41.3000786 27.4412721,43.6763583 Z"/>
    <path fill="url(#xstyled-c)" d="M27.3310868,43.97894 C33.9047779,45.551858 40.7301586,49.6914342 47.807229,56.3976686 C43.0605941,55.5250688 37.6335743,54.4218815 31.9758915,54.3199715 C27.3636992,54.2368936 22.5492103,55.0733756 18.0889627,55.8741062 C11.1702165,55.4490164 7.71084335,53.0902997 7.71084335,48.7979562 C7.71084335,42.3594408 17.4705503,41.6195631 27.3310868,43.97894 Z"/>
    <path fill="url(#xstyled-d)" d="M27.523514,30.6453085 C22.7623886,29.4150468 15.7297849,32.50533 6.42570282,39.9161581 C9.66567804,36.1580156 13.499034,31.964439 16.3952885,27.1114138 C19.5018471,23.9288145 23.9900373,22.0389275 29.8598591,21.4417527 C38.6645919,20.5459907 49.0898146,28.8097061 45.1512976,33.3304639 C41.2127805,37.8512217 34.6652021,32.490701 27.523514,30.6453085 Z"/>
    <path fill="url(#xstyled-e)" d="M28.2784606,30.6327464 C22.6592397,28.9710372 15.3749871,32.0655077 6.42570282,39.9161581 C9.66354051,36.1530423 13.4943675,31.9539163 16.3887111,27.0944691 C19.7733383,21.6799981 24.3986265,18.6737801 30.2645757,18.0758152 C39.0634996,17.1788678 49.0616672,28.7950087 45.1257485,33.321749 C41.1898299,37.8484891 36.7072919,33.1253103 28.2784606,30.6327464 L28.2784606,30.6327464 Z"/>
  </g>
</svg>
