<svg xmlns="http://www.w3.org/2000/svg" width="24" height="24" viewBox="0 0 24 24">
  <path fill="#888AA5" fill-rule="evenodd" d="M12,0 C18.627417,0 24,5.372583 24,12 C24,18.627417 18.627417,24 12,24 C5.372583,24 0,18.627417 0,12 C0,5.372583 5.372583,0 12,0 Z M11.4594837,6 C8.29557854,6.29238528 5.90529933,8.99599703 6.00288382,12.1718847 C6.10046831,15.3477724 8.65222762,17.8995317 11.8281153,17.9971162 C15.004003,18.0947007 17.7076147,15.7044215 18,12.5405163 C16.1384236,13.916522 13.5502755,13.7235169 11.9133793,12.0866207 C10.2764831,10.4497245 10.083478,7.86157638 11.4594837,6 Z"/>
</svg>
