<svg xmlns="http://www.w3.org/2000/svg" width="24" height="24" viewBox="0 0 24 24">
  <path fill="#888AA5" d="M12,0 C5.383,0 0,5.446543 0,12.1416526 C0,17.7834739 3.95,22.7655987 9.392,23.9878583 C9.54,24.0192243 9.694,23.9838111 9.813,23.8887015 C9.931,23.7925801 10,23.6478921 10,23.4940978 L10,20.7419899 C10,20.4627319 9.776,20.2360877 9.5,20.2360877 L8.5,20.2360877 C7.252,20.2360877 6.403,19.0391231 5.653,17.9838111 C5.576,17.8755481 5.5,17.767285 5.423,17.6620573 C5.778,17.8522766 6.083,18.0819562 6.384,18.3075885 C6.983,18.7568297 7.603,19.2212479 8.427,19.2212479 C8.43,19.2212479 8.434,19.2212479 8.437,19.2212479 C8.501,19.2283305 9.085,19.2890388 9.537,18.8873524 C9.749,18.698145 10,18.3409781 10,17.7065767 L10,17.353457 C10,17.1268128 9.852,16.9284992 9.636,16.8667791 C6.863,16.0725126 5,13.9699831 5,11.6357504 C5,10.4215852 5.493,9.26306914 6.425,8.2846543 C6.569,8.13389545 6.606,7.91028668 6.519,7.72006745 C6.147,6.90860034 6.226,5.80472175 6.667,5.14198988 C7.251,5.37166948 8.008,5.85430017 8.5,6.44519393 C8.635,6.60809444 8.857,6.66677909 9.054,6.59392917 C10.929,5.89780776 13.072,5.89780776 14.947,6.59392917 C15.146,6.66677909 15.367,6.60708263 15.501,6.44519393 C15.993,5.85430017 16.75,5.37166948 17.333,5.14097808 C17.775,5.80370995 17.854,6.90860034 17.481,7.72006745 C17.394,7.91028668 17.431,8.13389545 17.575,8.2846543 C18.507,9.26306914 19,10.4215852 19,11.6357504 C19,14.0863406 16.93,16.2809444 13.967,16.9720067 C13.816,17.0074199 13.689,17.1116358 13.625,17.2543002 C13.561,17.3969646 13.565,17.5618887 13.638,17.7005059 C13.885,18.176054 14,18.8205734 14,19.7301855 L14,23.4940978 C14,23.6478921 14.069,23.7925801 14.187,23.8887015 C14.277,23.9615514 14.387,24 14.5,24 C14.536,24 14.572,23.9959528 14.608,23.9878583 C20.05,22.7655987 24,17.7834739 24,12.1416526 C24,5.446543 18.617,0 12,0 Z"/>
</svg>
