<svg xmlns="http://www.w3.org/2000/svg" width="24" height="24" viewBox="0 0 24 24">
  <path fill="#888AA5" fill-rule="evenodd" d="M12,0 C18.627417,0 24,5.372583 24,12 C24,18.627417 18.627417,24 12,24 C5.372583,24 0,18.627417 0,12 C0,5.372583 5.372583,0 12,0 Z M12,15.9090909 C11.4477153,15.9090909 11,16.3568062 11,16.9090909 L11,16.9090909 L11,18 L11.0067277,18.1166211 C11.0644928,18.6139598 11.4871642,19 12,19 C12.5522847,19 13,18.5522847 13,18 L13,18 L13,16.9090909 L12.9932723,16.7924698 C12.9355072,16.2951311 12.5128358,15.9090909 12,15.9090909 Z M16.0819904,14.6787955 C15.6896991,14.3737706 15.1224681,14.4015002 14.7619841,14.7619841 C14.3714598,15.1525084 14.3714598,15.7856734 14.7619841,16.1761977 L14.7619841,16.1761977 L15.5365296,16.9507431 L15.6307369,17.0339318 C16.0230281,17.3389566 16.5902592,17.3112271 16.9507431,16.9507431 C17.3412674,16.5602189 17.3412674,15.9270539 16.9507431,15.5365296 L16.9507431,15.5365296 L16.1761977,14.7619841 Z M9.23801587,14.7619841 C8.84749158,14.3714598 8.2143266,14.3714598 7.82380231,14.7619841 L7.82380231,14.7619841 L7.04925686,15.5365296 L6.96606825,15.6307369 C6.66104336,16.0230281 6.68877289,16.5902592 7.04925686,16.9507431 C7.43978115,17.3412674 8.07294613,17.3412674 8.46347042,16.9507431 L8.46347042,16.9507431 L9.23801587,16.1761977 L9.32120448,16.0819904 C9.62622937,15.6896991 9.59849983,15.1224681 9.23801587,14.7619841 Z M12,9 C10.3431458,9 9,10.3431458 9,12 C9,13.6568542 10.3431458,15 12,15 C13.6568542,15 15,13.6568542 15,12 C15,10.3431458 13.6568542,9 12,9 Z M7.09090909,11 L6,11 L5.88337887,11.0067277 C5.38604019,11.0644928 5,11.4871642 5,12 C5,12.5522847 5.44771525,13 6,13 L6,13 L7.09090909,13 L7.20753022,12.9932723 C7.7048689,12.9355072 8.09090909,12.5128358 8.09090909,12 C8.09090909,11.4477153 7.64319384,11 7.09090909,11 L7.09090909,11 Z M18,11 L16.9090909,11 L16.7924698,11.0067277 C16.2951311,11.0644928 15.9090909,11.4871642 15.9090909,12 C15.9090909,12.5522847 16.3568062,13 16.9090909,13 L16.9090909,13 L18,13 L18.1166211,12.9932723 C18.6139598,12.9355072 19,12.5128358 19,12 C19,11.4477153 18.5522847,11 18,11 L18,11 Z M8.36926308,6.96606825 C7.97697187,6.66104336 7.40974082,6.68877289 7.04925686,7.04925686 C6.65873256,7.43978115 6.65873256,8.07294613 7.04925686,8.46347042 L7.04925686,8.46347042 L7.82380231,9.23801587 L7.91800965,9.32120448 C8.31030085,9.62622937 8.87753191,9.59849983 9.23801587,9.23801587 C9.62854016,8.84749158 9.62854016,8.2143266 9.23801587,7.82380231 L9.23801587,7.82380231 L8.46347042,7.04925686 Z M16.9507431,7.04925686 C16.5602189,6.65873256 15.9270539,6.65873256 15.5365296,7.04925686 L15.5365296,7.04925686 L14.7619841,7.82380231 L14.6787955,7.91800965 C14.3737706,8.31030085 14.4015002,8.87753191 14.7619841,9.23801587 C15.1525084,9.62854016 15.7856734,9.62854016 16.1761977,9.23801587 L16.1761977,9.23801587 L16.9507431,8.46347042 L17.0339318,8.36926308 C17.3389566,7.97697187 17.3112271,7.40974082 16.9507431,7.04925686 Z M12,5 C11.4477153,5 11,5.44771525 11,6 L11,6 L11,7.09090909 L11.0067277,7.20753022 C11.0644928,7.7048689 11.4871642,8.09090909 12,8.09090909 C12.5522847,8.09090909 13,7.64319384 13,7.09090909 L13,7.09090909 L13,6 L12.9932723,5.88337887 C12.9355072,5.38604019 12.5128358,5 12,5 Z"/>
</svg>
