<svg xmlns="http://www.w3.org/2000/svg" width="24" height="24" viewBox="0 0 24 24">
  <path fill="#888AA5" d="M10,1 C14.9705627,1 19,5.02943725 19,10 C19,12.124779 18.2636898,14.0775836 17.0323074,15.6171757 L22.7071068,21.2928932 C23.0976311,21.6834175 23.0976311,22.3165825 22.7071068,22.7071068 C22.3466228,23.0675907 21.7793918,23.0953203 21.3871006,22.7902954 L21.2928932,22.7071068 L15.6171757,17.0323074 C14.0775836,18.2636898 12.124779,19 10,19 C5.02943725,19 1,14.9705627 1,10 C1,5.02943725 5.02943725,1 10,1 Z M10,3 C6.13400675,3 3,6.13400675 3,10 C3,13.8659932 6.13400675,17 10,17 C11.8904747,17 13.6059153,16.25059 14.8654514,15.0326404 C14.8886352,15.0004394 14.9147502,14.9710363 14.9428932,14.9428932 L15.0326404,14.8654514 C16.25059,13.6059153 17,11.8904747 17,10 C17,6.13400675 13.8659932,3 10,3 Z"/>
</svg>
