<svg xmlns="http://www.w3.org/2000/svg" width="24" height="24" viewBox="0 0 24 24">
  <path fill="#888AA5" fill-rule="evenodd" d="M12,0 C18.627417,0 24,5.372583 24,12 C24,18.627417 18.627417,24 12,24 C5.372583,24 0,18.627417 0,12 C0,5.372583 5.372583,0 12,0 Z M12.8591797,6.55839519 C11.7404113,7.23998757 11.4969362,8.6260403 11.5444138,9.47088453 C8.98366393,9.21361994 7.39194512,7.80215836 6.49595656,6.63398652 C6.43326171,6.55204298 6.33221952,6.50884793 6.23726421,6.51520015 C6.1374394,6.5228228 6.04735359,6.58062793 5.99622381,6.67019413 C5.57257704,7.41657907 5.45510028,8.24173145 5.65779335,9.05672029 C5.76857454,9.50137515 5.96213729,9.89330665 6.18674311,10.2109173 C6.07900536,10.155653 5.97491973,10.0864139 5.87692098,10.0038351 C5.78683518,9.92633816 5.66083679,9.91172807 5.55431641,9.96318099 C5.44840472,10.0159044 5.38084036,10.1277033 5.38084036,10.250301 C5.38084036,11.6496934 6.21961226,12.5834686 7.00299356,13.0713185 C6.87638648,13.0554379 6.74430121,13.0262178 6.61099857,12.9836579 C6.49656525,12.9474503 6.37239292,12.9836579 6.29326349,13.0776707 C6.21413407,13.1710482 6.19526475,13.3044447 6.24456846,13.4181493 C6.6846498,14.433868 7.5185522,15.1326114 8.55027816,15.3860646 C7.64942009,15.9380719 6.4436094,16.2086761 5.33944958,16.0759149 C5.19640793,16.0549526 5.06006185,16.1496006 5.01501894,16.2931606 C4.96997604,16.4367206 5.02901877,16.5942554 5.15501716,16.6679411 C6.83012621,17.6493579 8.34454165,18 9.6532206,18 C11.557805,18 13.0277862,17.2580616 13.9225574,16.6374505 C16.3347875,14.9668186 17.8382465,11.967304 17.6288579,9.28349427 C18.0153747,8.98557551 18.5936282,8.43547393 18.9521454,7.84408296 C19.0264053,7.72466137 19.0130141,7.56712651 18.9204936,7.46167978 C18.827973,7.35559784 18.6788445,7.32891854 18.5564982,7.39434633 C18.4804122,7.43500049 18.3373706,7.48835907 18.1675467,7.54108243 C18.3818048,7.2437989 18.5540635,6.91094297 18.6301495,6.61175377 C18.6630186,6.48280386 18.6149323,6.34686652 18.510238,6.27000475 C18.4055436,6.1937782 18.2661541,6.1937782 18.1614598,6.27000475 C17.9965054,6.39006156 17.2003416,6.75086722 16.6969568,6.86774793 C15.5593191,5.82789078 14.235423,5.71990317 12.8591797,6.55839519 Z"/>
</svg>
