<?xml version="1.0" encoding="UTF-8"?>
<svg width="70px" height="24px" viewBox="0 0 70 24" version="1.1" xmlns="http://www.w3.org/2000/svg" xmlns:xlink="http://www.w3.org/1999/xlink">
    <title>AE30C03D-6618-4DD2-893F-E96340A2CACC</title>
    <g id="Website" stroke="none" stroke-width="1" fill="none" fill-rule="evenodd">
        <g id="HP" transform="translate(-1547.000000, -3000.000000)" fill-rule="nonzero">
            <g id="foot" transform="translate(0.000000, 2976.000000)">
                <g id="created-by" transform="translate(1455.000000, 24.000000)">
                    <g id="appio" transform="translate(92.000000, 0.000000)">
                        <path d="M42.014634,7.02439024 C44.669642,7.02439024 46.8219512,9.17669948 46.8219512,11.8317073 C46.8219512,14.4867152 44.669642,16.6390243 42.014634,16.6390244 C41.005108,16.6372369 40.0224276,16.3137264 39.2092683,15.7154634 L39.2092683,15.7154634 L39.2092683,19.9008293 L37.4746829,19.9008293 L37.4745366,7.30565852 L39.209561,7.30565852 L39.209561,7.94809756 C40.0226216,7.34984148 41.0051916,7.02628236 42.014634,7.02439024 Z M51.9547316,7.02439024 C54.6097396,7.02439024 56.7620484,9.17669948 56.7620484,11.8317073 C56.7620484,14.4867152 54.6097396,16.6390243 51.9547316,16.6390244 C51.0293324,16.6373859 50.1264916,16.3654107 49.3561049,15.859278 L49.149366,15.7154634 L49.149366,19.9008293 L47.4147804,19.9008293 L47.414634,7.30565852 L49.1496584,7.30565852 L49.1496584,7.94809756 C49.9627192,7.34984148 50.9452892,7.02628236 51.9547316,7.02439024 Z M64.8292684,7.17073172 C67.4963476,7.17073172 69.6585364,9.33309064 69.6585364,12 C69.6585364,14.6669094 67.4963476,16.8292683 64.8292684,16.8292683 C62.1621892,16.8292683 60,14.6669094 60,12 C60,9.33309064 62.1621892,7.17073172 64.8292684,7.17073172 Z M59.1576976,7.3059512 L59.1576976,16.8096585 L57.4017072,16.7767317 L57.4017072,7.3059512 L59.1576976,7.3059512 Z M32.0143902,7.02439024 C33.0237655,7.02642936 34.0062266,7.35008896 34.8191707,7.94839024 L34.8191707,7.94839024 L34.8190244,7.3059512 L36.5540488,7.3059512 L36.5540488,16.3432683 L34.8190244,16.3432683 L34.8190244,15.714878 C34.0061622,16.3132478 33.02374,16.6369626 32.0143902,16.6390244 C29.374019,16.6184221 27.2444374,14.4721589 27.2444374,11.8317073 C27.2444374,9.19125572 29.374019,7.04499252 32.0143902,7.02439024 Z M66.0034876,9.29531316 C64.8541556,8.84275304 63.5317232,9.09455812 62.6534496,9.93319596 C61.7751756,10.7718338 61.5142332,12.0319461 61.99242,13.125363 C62.4706068,14.21878 63.5936364,14.9299073 64.8373236,14.9268392 C66.5323268,14.9246566 67.9045904,13.6143225 67.9024417,12.0000332 C67.9024417,10.8155652 67.1528196,9.74787332 66.0034876,9.29531316 Z M33.1103057,9.09916136 C32.0157038,8.6466012 30.7562446,8.89840632 29.9197933,9.73704416 C29.083342,10.575682 28.8348256,11.8357943 29.2902416,12.9292112 C29.7456576,14.0226282 30.8152095,14.7337555 31.9996733,14.7306874 C33.6139622,14.7285048 34.92088,13.4181707 34.9188334,11.8038814 C34.9188334,10.6194134 34.2049077,9.55172148 33.1103057,9.09916136 Z M43.0615252,9.09916136 C41.9669232,8.6466012 40.707464,8.89840632 39.8710128,9.73704416 C39.0345615,10.575682 38.7860451,11.8357943 39.2414611,12.9292112 C39.6968771,14.0226282 40.7664288,14.7337555 41.9508928,14.7306874 C43.5651816,14.7285048 44.8720996,13.4181707 44.8700528,11.8038814 C44.8700528,10.6194134 44.1561272,9.55172148 43.0615252,9.09916136 Z M53.0016228,9.09916136 C51.9070208,8.6466012 50.6475616,8.89840632 49.8111104,9.73704416 C48.9746592,10.575682 48.7261428,11.8357943 49.1815588,12.9292112 C49.6369748,14.0226282 50.7065264,14.7337555 51.8909904,14.7306874 C53.5052792,14.7285048 54.8121972,13.4181707 54.8101504,11.8038814 C54.8101504,10.6194134 54.0962248,9.55172148 53.0016228,9.09916136 Z M58.2439024,4.68292684 C58.7288352,4.68292684 59.1219512,5.01052336 59.1219512,5.41463416 C59.1219512,5.81874492 58.7288352,6.14634148 58.2439024,6.14634148 C57.7589696,6.14634148 57.3658536,5.81874492 57.3658536,5.41463416 C57.3658536,5.01052336 57.7589696,4.68292684 58.2439024,4.68292684 Z" id="Shape" fill="#02112B"></path>
                        <path d="M13.4634146,0 C13.4634146,0 22.1435122,10.9170732 26.9268293,24 C26.9268293,24 15.1801464,16.4436585 0,24 C0,24 3.80019512,12.5486342 13.4634146,0 Z M13.4634146,5.90385364 C8.92434148,11.6772966 6.31243972,18.5351951 6.20977928,18.8072016 L6.20663416,18.815561 L6.20663416,18.815561 C14.028878,15.047122 20.7200488,18.815561 20.7200488,18.815561 C17.6642927,11.0625366 13.4634146,5.90414636 13.4634146,5.90414636 L13.4634146,5.90385364 Z M13.4634146,8.20785364 C13.4634146,8.20814636 16.0510244,11.3678049 18.0942439,16.511561 C18.0942439,16.511561 18.066217,16.4957362 18.0120454,16.467923 L17.9401716,16.4317778 C17.1314996,16.0328618 13.2446992,14.3574146 8.78473172,16.511561 C8.78473172,16.511561 8.8865714,16.2423502 9.08376912,15.780239 L9.14270052,15.6430241 C9.78860756,14.1485378 11.287181,10.9833556 13.4634146,8.20785364 L13.4634146,8.20785364 Z" id="Shape" fill="#0A56D7"></path>
                    </g>
                </g>
            </g>
        </g>
    </g>
</svg>
