<?xml version="1.0" encoding="UTF-8"?>
<svg width="71px" height="16px" viewBox="0 0 71 16" version="1.1" xmlns="http://www.w3.org/2000/svg" xmlns:xlink="http://www.w3.org/1999/xlink">
    <title>719474C7-285B-4E24-BEA9-3C38A4BA94E0</title>
    <g id="Website" stroke="none" stroke-width="1" fill="none" fill-rule="evenodd">
        <g id="HP" transform="translate(-402.000000, -3004.000000)" fill="#000000" fill-rule="nonzero">
            <g id="foot" transform="translate(0.000000, 2976.000000)">
                <g id="powered-by" transform="translate(304.000000, 24.000000)">
                    <g id="vercel" transform="translate(98.000000, 4.000000)">
                        <path d="M35.26,4 C32.5,4 30.51,5.8 30.51,8.5 C30.51,11.2 32.75,13 35.51,13 C37.1775,13 38.6475,12.34 39.5575,11.2275 L37.645,10.1225 C37.14,10.675 36.3725,10.9975 35.51,10.9975 C34.3125,10.9975 33.295,10.3725 32.9175,9.3725 L39.9225,9.3725 C39.9775,9.0925 40.01,8.8025 40.01,8.4975 C40.01,5.8 38.02,4 35.26,4 Z M32.895,7.625 C33.2075,6.6275 34.0625,6 35.2575,6 C36.455,6 37.31,6.6275 37.62,7.625 L32.895,7.625 L32.895,7.625 Z M62.18,4 C59.42,4 57.43,5.8 57.43,8.5 C57.43,11.2 59.67,13 62.43,13 C64.0975,13 65.5675,12.34 66.4775,11.2275 L64.565,10.1225 C64.06,10.675 63.2925,10.9975 62.43,10.9975 C61.2325,10.9975 60.215,10.3725 59.8375,9.3725 L66.8425,9.3725 C66.8975,9.0925 66.93,8.8025 66.93,8.4975 C66.93,5.8 64.94,4 62.18,4 L62.18,4 Z M59.8175,7.625 C60.13,6.6275 60.985,6 62.18,6 C63.3775,6 64.2325,6.6275 64.5425,7.625 L59.8175,7.625 Z M50.06,8.5 C50.06,10 51.04,11 52.56,11 C53.59,11 54.3625,10.5325 54.76,9.77 L56.68,10.8775 C55.885,12.2025 54.395,13 52.56,13 C49.7975,13 47.81,11.2 47.81,8.5 C47.81,5.8 49.8,4 52.56,4 C54.395,4 55.8825,4.7975 56.68,6.1225 L54.76,7.23 C54.3625,6.4675 53.59,6 52.56,6 C51.0425,6 50.06,7 50.06,8.5 Z M70.68,1.25 L70.68,12.75 L68.43,12.75 L68.43,1.25 L70.68,1.25 Z M9.2375,0 L18.475,16 L0,16 L9.2375,0 Z M32.3325,1.25 L25.405,13.25 L18.4775,1.25 L21.075,1.25 L25.405,8.75 L29.735,1.25 L32.3325,1.25 Z M47.06,4.25 L47.06,6.6725 C46.81,6.6 46.545,6.55 46.26,6.55 C44.8075,6.55 43.76,7.55 43.76,9.05 L43.76,12.75 L41.51,12.75 L41.51,4.25 L43.76,4.25 L43.76,6.55 C43.76,5.28 45.2375,4.25 47.06,4.25 Z" id="Shape"></path>
                    </g>
                </g>
            </g>
        </g>
    </g>
</svg>
