<svg width="42px" height="48px" viewBox="0 0 42 48" version="1.1" xmlns="http://www.w3.org/2000/svg" xmlns:xlink="http://www.w3.org/1999/xlink">
    <g id="Website" stroke="none" stroke-width="1" fill="none" fill-rule="evenodd">
        <g id="Docs" transform="translate(-664.000000, -1064.000000)" fill="#FFFFFF" fill-rule="nonzero">
            <g id="Contents" transform="translate(640.000000, 96.000000)">
                <g id="discord" transform="translate(0.000000, 944.000000)">
                    <path d="M61.08,24 C63.792,24 66,26.208 66,28.944 L66,28.944 L66,72 L60.84,67.44 L57.936,64.752 L54.864,61.896 L56.136,66.336 L28.92,66.336 C26.208,66.336 24,64.128 24,61.392 L24,61.392 L24,28.944 C24,26.208 26.208,24 28.92,24 L28.92,24 Z M41.328,35.1838006 L41.2831335,35.1836663 C40.8788554,35.1863929 37.8043636,35.2887273 34.584,37.704 L34.584,37.704 L34.572736,37.7247022 C34.554176,37.7590578 34.513216,37.8358022 34.453856,37.9521578 L34.374048,38.11062 C33.62496,39.61614 31.128,45.1272 31.128,51.696 C31.128,51.696 33.144,55.176 38.448,55.344 C38.448,55.344 39.01632,54.6528 39.612288,53.909376 L39.836016,53.629392 C39.91032,53.53608 39.984,53.4432 40.056,53.352 C37.008,52.44 35.856,50.52 35.856,50.52 C35.856,50.52 36.096,50.688 36.528,50.928 C36.552,50.952 36.576,50.976 36.624,51 C36.696,51.048 36.768,51.072 36.84,51.12 C37.44,51.456 38.04,51.72 38.592,51.936 C39.576,52.32 40.752,52.704 42.12,52.968 C43.92,53.304 46.032,53.424 48.336,52.992 C49.464,52.8 50.616,52.464 51.816,51.96 C52.656,51.648 53.592,51.192 54.576,50.544 C54.576,50.544 53.376,52.512 50.232,53.4 C50.304,53.4912 50.37744,53.5836 50.451312,53.676048 L50.673216,53.952384 C51.26304,54.68352 51.816,55.344 51.816,55.344 C57.12,55.176 59.16,51.696 59.16,51.696 C59.16,45.1272 56.66304,39.61614 55.913952,38.11062 L55.834144,37.9521578 C55.774784,37.8358022 55.733824,37.7590578 55.715264,37.7247022 L55.704,37.704 C52.4836364,35.2887273 49.4091446,35.1863929 49.0048665,35.1836663 L48.96,35.1838006 L48.624,35.568 C52.704,36.816 54.6,38.616 54.6,38.616 C52.104,37.248 49.656,36.576 47.376,36.312 C45.648,36.12 43.992,36.168 42.528,36.36 C42.384,36.36 42.264,36.384 42.12,36.408 C41.28,36.48 39.24,36.792 36.672,37.92 C36.3168,38.0832 36.0192,38.2272 35.789952,38.341248 L35.5838862,38.4449138 C35.3709867,38.55328 35.256,38.616 35.256,38.616 C35.256,38.616 37.248,36.72 41.568,35.472 L41.568,35.472 L41.328,35.1838006 L41.328,35.1838006 Z M40.656,44.136 C42.024,44.136 43.128,45.336 43.104,46.8 C43.104,48.264 42.024,49.464 40.656,49.464 C39.312,49.464 38.208,48.264 38.208,46.8 C38.208,45.336 39.288,44.136 40.656,44.136 Z M49.416,44.136 C50.784,44.136 51.864,45.336 51.864,46.8 C51.864,48.264 50.784,49.464 49.416,49.464 C48.072,49.464 46.968,48.264 46.968,46.8 C46.968,45.336 48.048,44.136 49.416,44.136 Z"></path>
                </g>
            </g>
        </g>
    </g>
</svg>
