<?xml version="1.0" standalone="no"?>
<!DOCTYPE svg PUBLIC "-//W3C//DTD SVG 20010904//EN"
 "http://www.w3.org/TR/2001/REC-SVG-20010904/DTD/svg10.dtd">
<svg version="1.0" xmlns="http://www.w3.org/2000/svg"
 width="400.000000pt" height="400.000000pt" viewBox="0 0 400.000000 400.000000"
 preserveAspectRatio="xMidYMid meet">
<metadata>
Created by potrace 1.11, written by Peter Selinger 2001-2013
</metadata>
<g transform="translate(0.000000,400.000000) scale(0.100000,-0.100000)"
fill="#000000" stroke="none">
<path d="M448 3990 c-216 -26 -369 -155 -425 -361 -17 -60 -18 -164 -18 -1634
0 -1496 1 -1573 18 -1630 56 -179 164 -287 342 -342 57 -17 134 -18 1630 -18
1297 0 1580 2 1625 14 136 34 259 129 318 247 60 121 57 28 57 1739 0 1496 -1
1573 -18 1630 -55 177 -159 282 -337 341 -52 18 -128 19 -1590 20 -844 1
-1565 -2 -1602 -6z m2004 -1278 c243 -674 626 -1736 633 -1754 7 -17 -6 -18
-178 -18 l-185 0 -62 173 c-34 94 -82 232 -107 305 l-47 132 -499 -2 -499 -3
-29 -80 c-15 -44 -51 -147 -79 -230 -28 -82 -63 -183 -77 -222 l-26 -73 -179
0 c-168 0 -180 1 -173 18 7 16 136 384 249 707 29 83 155 444 281 803 l230
652 300 0 300 0 147 -408z"/>
<path d="M1785 2354 c-88 -257 -161 -473 -163 -480 -3 -12 60 -14 382 -14 212
0 386 2 386 6 0 5 -79 230 -205 584 -43 118 -89 250 -103 293 l-26 77 -56 0
-55 0 -160 -466z"/>
</g>
</svg>
